<?xml version="1.0" encoding="UTF-8" standalone="no"?>
<!-- Created with Inkscape (http://www.inkscape.org/) -->

<svg
   version="1.1"
   id="svg2"
   xml:space="preserve"
   width="604.31598"
   height="530.36859"
   viewBox="0 0 604.31598 530.36859"
   sodipodi:docname="d0cc9c2c2626d8c74ff4f4fca755249f.ai"
   xmlns:inkscape="http://www.inkscape.org/namespaces/inkscape"
   xmlns:sodipodi="http://sodipodi.sourceforge.net/DTD/sodipodi-0.dtd"
   xmlns="http://www.w3.org/2000/svg"
   xmlns:svg="http://www.w3.org/2000/svg"><defs
     id="defs6"><clipPath
       clipPathUnits="userSpaceOnUse"
       id="clipPath16"><path
         d="M 0,500 H 500 V 0 H 0 Z"
         id="path14" /></clipPath><clipPath
       clipPathUnits="userSpaceOnUse"
       id="clipPath84"><path
         d="M 0,500 H 500 V 0 H 0 Z"
         id="path82" /></clipPath><clipPath
       clipPathUnits="userSpaceOnUse"
       id="clipPath96"><path
         d="M 0,500 H 500 V 0 H 0 Z"
         id="path94" /></clipPath><clipPath
       clipPathUnits="userSpaceOnUse"
       id="clipPath124"><path
         d="M 0,500 H 500 V 0 H 0 Z"
         id="path122" /></clipPath><clipPath
       clipPathUnits="userSpaceOnUse"
       id="clipPath132"><path
         d="M 26.0344,400.461 H 235.409 V 187.35 H 26.0344 Z"
         id="path130" /></clipPath><clipPath
       clipPathUnits="userSpaceOnUse"
       id="clipPath168"><path
         d="m 225.953,304.019 h 56.841 v -36.685 h -56.841 z"
         id="path166" /></clipPath><clipPath
       clipPathUnits="userSpaceOnUse"
       id="clipPath208"><path
         d="m 223.615,228.934 h 61.737 v -36.856 h -61.737 z"
         id="path206" /></clipPath><clipPath
       clipPathUnits="userSpaceOnUse"
       id="clipPath264"><path
         d="m 228.354,344.411 h 57.274 V 183.954 h -57.274 z"
         id="path262" /></clipPath><clipPath
       clipPathUnits="userSpaceOnUse"
       id="clipPath320"><path
         d="m 297.073,221.372 h 30.041 v -36.123 h -30.041 z"
         id="path318" /></clipPath><clipPath
       clipPathUnits="userSpaceOnUse"
       id="clipPath356"><path
         d="M 0,500 H 500 V 0 H 0 Z"
         id="path354" /></clipPath></defs><sodipodi:namedview
     id="namedview4"
     pagecolor="#ffffff"
     bordercolor="#666666"
     borderopacity="1.0"
     inkscape:pageshadow="2"
     inkscape:pageopacity="0.0"
     inkscape:pagecheckerboard="0" /><g
     id="g8"
     inkscape:groupmode="layer"
     inkscape:label="d0cc9c2c2626d8c74ff4f4fca755249f"
     transform="matrix(1.3333333,0,0,-1.3333333,-29.249866,599.74704)"><g
       id="g10"><g
         id="g12"
         clip-path="url(#clipPath16)"><g
           id="g18"
           transform="translate(63.7379,411.2473)"><path
             d="M 0,0 0.404,-0.731 C 0.858,-1.553 1.54,-2.228 2.369,-2.677 l 0.738,-0.401 -0.738,-0.4 C 1.54,-3.927 0.858,-4.602 0.404,-5.423 L 0,-6.155 -0.404,-5.423 c -0.453,0.821 -1.135,1.496 -1.964,1.945 l -0.739,0.4 0.739,0.401 c 0.829,0.449 1.511,1.124 1.964,1.946 z"
             style="fill:#ececec;fill-opacity:1;fill-rule:nonzero;stroke:none"
             id="path20" /></g><g
           id="g22"
           transform="translate(155.1505,377.7829)"><path
             d="M 0,0 0.766,-1.387 C 1.625,-2.944 2.917,-4.224 4.489,-5.075 L 5.89,-5.834 4.489,-6.592 C 2.917,-7.444 1.625,-8.724 0.766,-10.281 L 0,-11.667 l -0.766,1.386 c -0.859,1.557 -2.152,2.837 -3.723,3.689 l -1.401,0.758 1.401,0.759 c 1.571,0.851 2.864,2.131 3.723,3.688 z"
             style="fill:#ececec;fill-opacity:1;fill-rule:nonzero;stroke:none"
             id="path24" /></g><g
           id="g26"
           transform="translate(453.2946,250.7795)"><path
             d="M 0,0 0.766,-1.387 C 1.625,-2.944 2.918,-4.224 4.489,-5.075 L 5.89,-5.833 4.489,-6.592 C 2.918,-7.444 1.625,-8.723 0.766,-10.281 L 0,-11.667 l -0.766,1.386 c -0.859,1.558 -2.152,2.837 -3.723,3.689 l -1.401,0.759 1.401,0.758 c 1.571,0.851 2.864,2.131 3.723,3.688 z"
             style="fill:#ececec;fill-opacity:1;fill-rule:nonzero;stroke:none"
             id="path28" /></g><g
           id="g30"
           transform="translate(131.881,437.5246)"><path
             d="M 0,0 0.344,-0.623 C 0.73,-1.322 1.31,-1.896 2.016,-2.279 L 2.645,-2.62 2.016,-2.96 C 1.31,-3.342 0.73,-3.917 0.344,-4.616 L 0,-5.239 -0.344,-4.616 c -0.386,0.699 -0.967,1.274 -1.672,1.656 l -0.629,0.34 0.629,0.341 c 0.705,0.383 1.286,0.957 1.672,1.656 z"
             style="fill:#ececec;fill-opacity:1;fill-rule:nonzero;stroke:none"
             id="path32" /></g><g
           id="g34"
           transform="translate(392.0973,280.9597)"><path
             d="m 0,0 h 48.951 c 0,0 -4.329,7.877 -16.929,6.731 C 19.988,5.636 19.376,10.606 13.258,11.218 7.139,11.83 2.039,7.139 0,0"
             style="fill:#ececec;fill-opacity:1;fill-rule:nonzero;stroke:none"
             id="path36" /></g><g
           id="g38"
           transform="translate(331.4918,397.1559)"><path
             d="m 0,0 h 95.664 c 0,0 -8.46,15.395 -33.084,13.154 C 39.063,11.014 37.867,20.727 25.909,21.923 13.951,23.119 3.986,13.951 0,0"
             style="fill:#ececec;fill-opacity:1;fill-rule:nonzero;stroke:none"
             id="path40" /></g><g
           id="g42"
           transform="translate(60.631,365.1472)"><path
             d="m 0,0 h 54.875 c 0,0 -4.853,8.831 -18.978,7.545 C 22.407,6.318 21.721,11.89 14.862,12.576 8.002,13.261 2.286,8.002 0,0"
             style="fill:#ececec;fill-opacity:1;fill-rule:nonzero;stroke:none"
             id="path44" /></g><g
           id="g46"
           transform="translate(441.5406,329.4875)"><path
             d="M 0,0 C 0.028,-0.092 -1.272,-0.428 -3.186,-1.381 -5.093,-2.323 -7.595,-3.985 -9.684,-6.48 -9.751,-6.559 -9.817,-6.637 -9.879,-6.71 l -0.243,-0.287 -0.199,0.313 c -1.707,2.681 -4.103,4.423 -5.946,5.333 -1.855,0.931 -3.141,1.171 -3.116,1.268 0.007,0.032 0.332,0.005 0.909,-0.12 0.577,-0.124 1.401,-0.371 2.371,-0.803 1.933,-0.843 4.462,-2.597 6.243,-5.385 l -0.443,0.026 c 0.064,0.074 0.132,0.156 0.2,0.237 2.152,2.568 4.766,4.227 6.751,5.096 0.997,0.441 1.835,0.715 2.422,0.866 0.589,0.151 0.921,0.2 0.93,0.166"
             style="fill:#1a2e35;fill-opacity:1;fill-rule:nonzero;stroke:none"
             id="path48" /></g><g
           id="g50"
           transform="translate(63.3551,338.3771)"><path
             d="m 0,0 c 0.021,-0.071 -0.975,-0.328 -2.44,-1.058 -1.461,-0.721 -3.377,-1.995 -4.977,-3.905 -0.051,-0.06 -0.103,-0.12 -0.149,-0.176 l -0.187,-0.22 -0.152,0.239 c -1.308,2.054 -3.143,3.389 -4.554,4.086 -1.421,0.713 -2.406,0.896 -2.386,0.971 0.005,0.024 0.254,0.003 0.696,-0.093 0.441,-0.094 1.072,-0.284 1.816,-0.615 1.479,-0.645 3.417,-1.988 4.781,-4.124 l -0.339,0.02 c 0.048,0.057 0.101,0.119 0.153,0.181 1.648,1.968 3.65,3.238 5.171,3.903 0.762,0.339 1.405,0.548 1.855,0.664 C -0.261,-0.011 -0.006,0.026 0,0"
             style="fill:#1a2e35;fill-opacity:1;fill-rule:nonzero;stroke:none"
             id="path52" /></g><g
           id="g54"
           transform="translate(108.0783,313.5934)"><path
             d="M 0,0 C 0.027,-0.093 -1.273,-0.428 -3.187,-1.382 -5.093,-2.323 -7.596,-3.986 -9.685,-6.48 -9.751,-6.559 -9.818,-6.638 -9.879,-6.71 l -0.244,-0.287 -0.199,0.312 c -1.707,2.682 -4.103,4.424 -5.946,5.334 -1.855,0.931 -3.141,1.17 -3.115,1.268 0.007,0.032 0.332,0.004 0.908,-0.121 0.578,-0.123 1.401,-0.371 2.372,-0.802 1.932,-0.843 4.462,-2.597 6.242,-5.385 l -0.442,0.025 c 0.063,0.075 0.131,0.156 0.2,0.237 2.151,2.569 4.765,4.228 6.751,5.097 0.996,0.441 1.834,0.714 2.422,0.866 C -0.342,-0.015 -0.009,0.033 0,0"
             style="fill:#1a2e35;fill-opacity:1;fill-rule:nonzero;stroke:none"
             id="path56" /></g><g
           id="g58"
           transform="translate(300.7828,449.8)"><path
             d="M 0,0 C 0.027,-0.092 -1.273,-0.428 -3.187,-1.381 -5.094,-2.323 -7.596,-3.985 -9.685,-6.48 -9.751,-6.559 -9.818,-6.637 -9.88,-6.71 l -0.243,-0.287 -0.199,0.313 c -1.707,2.681 -4.103,4.423 -5.946,5.333 -1.855,0.931 -3.14,1.171 -3.115,1.268 0.007,0.033 0.332,0.005 0.908,-0.12 0.578,-0.124 1.401,-0.371 2.371,-0.803 1.933,-0.843 4.462,-2.597 6.243,-5.385 l -0.443,0.026 c 0.064,0.075 0.132,0.156 0.2,0.237 2.152,2.568 4.766,4.228 6.751,5.096 0.997,0.442 1.835,0.715 2.423,0.866 0.588,0.151 0.921,0.2 0.93,0.166"
             style="fill:#1a2e35;fill-opacity:1;fill-rule:nonzero;stroke:none"
             id="path60" /></g><g
           id="g62"
           transform="translate(420.4156,362.3727)"><path
             d="m 0,0 0.2,-0.366 c 0.224,-0.411 0.562,-0.748 0.973,-0.973 l 0.365,-0.2 -0.365,-0.2 C 0.762,-1.963 0.424,-2.301 0.2,-2.712 L 0,-3.078 -0.2,-2.712 c -0.225,0.411 -0.563,0.749 -0.974,0.973 l -0.365,0.2 0.365,0.2 c 0.411,0.225 0.749,0.562 0.974,0.973 z"
             style="fill:#375a64;fill-opacity:1;fill-rule:nonzero;stroke:none"
             id="path64" /></g><g
           id="g66"
           transform="translate(59.6139,260.6047)"><path
             d="m 0,0 0.2,-0.366 c 0.224,-0.41 0.562,-0.748 0.973,-0.973 l 0.366,-0.2 -0.366,-0.2 C 0.762,-1.963 0.424,-2.301 0.2,-2.712 L 0,-3.078 -0.2,-2.712 c -0.225,0.411 -0.563,0.749 -0.973,0.973 l -0.366,0.2 0.366,0.2 c 0.41,0.225 0.748,0.563 0.973,0.973 z"
             style="fill:#375a64;fill-opacity:1;fill-rule:nonzero;stroke:none"
             id="path68" /></g><g
           id="g70"
           transform="translate(336.0377,313.9128)"><path
             d="M 0,0 0.69,-1.263 C 1.466,-2.681 2.632,-3.847 4.05,-4.622 L 5.312,-5.313 4.05,-6.003 C 2.632,-6.779 1.466,-7.944 0.69,-9.362 L 0,-10.625 -0.69,-9.362 c -0.776,1.418 -1.942,2.583 -3.36,3.359 l -1.262,0.69 1.262,0.691 c 1.418,0.775 2.584,1.941 3.36,3.359 z"
             style="fill:#375a64;fill-opacity:1;fill-rule:nonzero;stroke:none"
             id="path72" /></g><g
           id="g74"
           transform="translate(178.1061,437.4772)"><path
             d="M 0,0 0.69,-1.263 C 1.466,-2.681 2.632,-3.847 4.049,-4.622 L 5.312,-5.312 4.049,-6.003 C 2.632,-6.779 1.466,-7.944 0.69,-9.362 L 0,-10.625 -0.691,-9.362 c -0.775,1.418 -1.941,2.583 -3.359,3.359 l -1.262,0.691 1.262,0.69 c 1.418,0.775 2.584,1.941 3.359,3.359 z"
             style="fill:#375a64;fill-opacity:1;fill-rule:nonzero;stroke:none"
             id="path76" /></g></g></g><g
       id="g78"><g
         id="g80"
         clip-path="url(#clipPath84)"><g
           id="g86"
           transform="translate(413.6686,358.0744)"><path
             d="m 0,0 c 7.726,-26.37 4.584,-61.444 -11.747,-83.317 -16.332,-21.873 -40.434,-36.417 -65.272,-47.187 -33.916,-14.707 -70.362,-23.371 -107.194,-25.483 -28.944,-1.659 -58.839,0.904 -85.06,13.554 -26.223,12.649 -48.303,36.678 -53.389,65.743 -5.086,29.064 10.183,62.028 37.526,71.784 35.816,12.779 77.434,-15 112.385,0.046 14.433,6.214 25.068,18.793 37.213,28.865 15.862,13.157 35.262,22.408 55.684,23.974 20.423,1.566 45.575,-1.844 60.16,-16.516 0,0 14.962,-15.305 19.694,-31.463"
             style="fill:#f5f5f5;fill-opacity:1;fill-rule:nonzero;stroke:none"
             id="path88" /></g></g></g><g
       id="g90"><g
         id="g92"
         clip-path="url(#clipPath96)"><g
           id="g98"
           transform="translate(259.5709,113.8015)"><path
             d="m 0,0 c 0,0 -0.143,-0.109 -0.437,-0.301 -0.316,-0.2 -0.754,-0.478 -1.319,-0.837 -1.214,-0.632 -3.022,-1.587 -5.551,-2.275 -2.514,-0.711 -5.713,-1.149 -9.422,-1.098 -3.709,0.032 -7.919,0.598 -12.459,1.656 -4.547,1.047 -9.401,2.627 -14.675,4.056 -5.261,1.402 -11.012,2.75 -17.143,2.602 -3.056,-0.065 -6.164,-0.574 -9.247,-1.445 -3.087,-0.861 -6.152,-2.044 -9.251,-3.297 -3.1,-1.255 -6.246,-2.582 -9.539,-3.681 -3.289,-1.092 -6.739,-1.977 -10.319,-2.204 -3.579,-0.221 -7.119,0.187 -10.518,0.873 -3.406,0.687 -6.688,1.641 -9.903,2.575 -6.405,1.882 -12.678,3.65 -18.823,3.637 -6.132,0.016 -11.885,-1.248 -17.15,-2.656 -5.274,-1.428 -10.118,-3.022 -14.601,-4.287 -4.478,-1.277 -8.6,-2.221 -12.278,-2.698 -3.678,-0.462 -6.893,-0.472 -9.488,-0.185 -2.599,0.277 -4.559,0.833 -5.873,1.216 -0.629,0.227 -1.118,0.403 -1.468,0.529 -0.329,0.123 -0.493,0.198 -0.493,0.198 0,0 0.176,-0.041 0.511,-0.148 0.354,-0.114 0.846,-0.272 1.481,-0.477 1.32,-0.35 3.277,-0.87 5.863,-1.114 2.582,-0.253 5.774,-0.214 9.428,0.273 3.654,0.502 7.752,1.466 12.215,2.764 4.467,1.285 9.304,2.899 14.589,4.35 5.276,1.43 11.062,2.722 17.267,2.72 6.228,0.025 12.56,-1.753 18.964,-3.627 6.398,-1.842 13.164,-3.842 20.244,-3.418 3.517,0.223 6.923,1.094 10.186,2.176 3.268,1.089 6.406,2.408 9.512,3.661 3.105,1.253 6.189,2.44 9.308,3.305 3.115,0.874 6.275,1.387 9.372,1.444 6.213,0.136 11.998,-1.242 17.268,-2.665 5.283,-1.45 10.127,-3.05 14.646,-4.115 4.514,-1.075 8.696,-1.664 12.379,-1.724 3.684,-0.078 6.86,0.326 9.364,1.002 2.517,0.652 4.328,1.571 5.552,2.17 0.576,0.339 1.021,0.602 1.341,0.789 C -0.163,-0.079 0,0 0,0"
             style="fill:#375a64;fill-opacity:1;fill-rule:nonzero;stroke:none"
             id="path100" /></g><g
           id="g102"
           transform="translate(380.2721,62.2341)"><path
             d="m 0,0 c 0,0 -0.148,-0.114 -0.454,-0.312 -0.327,-0.209 -0.782,-0.498 -1.369,-0.87 -1.26,-0.657 -3.137,-1.648 -5.762,-2.364 -2.609,-0.739 -5.93,-1.195 -9.781,-1.143 -3.852,0.031 -8.223,0.618 -12.936,1.713 -4.721,1.087 -9.761,2.725 -15.237,4.206 -5.463,1.454 -11.434,2.851 -17.8,2.695 -3.173,-0.068 -6.399,-0.599 -9.599,-1.502 -3.206,-0.897 -6.386,-2.125 -9.604,-3.428 -3.218,-1.304 -6.483,-2.682 -9.902,-3.824 -3.413,-1.136 -6.995,-2.056 -10.711,-2.293 -3.717,-0.231 -7.392,0.192 -10.922,0.903 -3.535,0.712 -6.944,1.701 -10.281,2.669 -6.651,1.952 -13.164,3.785 -19.544,3.77 -6.367,0.014 -12.339,-1.3 -17.805,-2.764 -5.474,-1.485 -10.503,-3.142 -15.157,-4.456 -4.648,-1.328 -8.928,-2.31 -12.746,-2.806 -3.819,-0.48 -7.156,-0.492 -9.849,-0.196 -2.7,0.287 -4.734,0.863 -6.099,1.262 -0.654,0.234 -1.161,0.417 -1.525,0.548 -0.342,0.127 -0.512,0.205 -0.512,0.205 0,0 0.183,-0.043 0.531,-0.154 0.367,-0.117 0.878,-0.282 1.538,-0.494 1.37,-0.363 3.402,-0.902 6.088,-1.155 2.68,-0.262 5.994,-0.22 9.788,0.287 3.793,0.523 8.047,1.525 12.68,2.874 4.637,1.336 9.658,3.014 15.145,4.523 5.477,1.486 11.484,2.83 17.926,2.829 6.466,0.029 13.04,-1.815 19.69,-3.758 6.644,-1.91 13.668,-3.985 21.018,-3.541 3.651,0.232 7.187,1.138 10.575,2.263 3.392,1.131 6.65,2.502 9.874,3.804 3.222,1.302 6.424,2.534 9.663,3.435 3.233,0.908 6.515,1.442 9.729,1.503 6.451,0.142 12.456,-1.285 17.929,-2.761 5.485,-1.504 10.515,-3.162 15.207,-4.268 4.687,-1.115 9.028,-1.724 12.853,-1.785 3.824,-0.079 7.122,0.342 9.721,1.044 2.613,0.679 4.493,1.633 5.764,2.255 0.597,0.352 1.06,0.625 1.392,0.82 C -0.169,-0.083 0,0 0,0"
             style="fill:#375a64;fill-opacity:1;fill-rule:nonzero;stroke:none"
             id="path104" /></g><g
           id="g106"
           transform="translate(416.5729,99.0632)"><path
             d="m 0,0 c -0.005,-0.009 -0.094,0.022 -0.264,0.09 -0.198,0.083 -0.444,0.185 -0.748,0.313 -0.658,0.273 -1.646,0.631 -2.945,0.995 -2.605,0.701 -6.531,1.195 -11.351,0.778 -4.831,-0.332 -10.443,-1.715 -16.778,-2.785 -3.168,-0.519 -6.548,-0.904 -10.063,-0.768 -3.523,0.12 -7.102,0.944 -10.649,2 -3.556,1.045 -6.97,2.232 -10.355,2.999 -3.371,0.787 -6.744,1.125 -9.886,0.678 -3.144,-0.44 -6.009,-1.51 -8.61,-2.635 -2.606,-1.136 -4.978,-2.333 -7.187,-3.342 -4.386,-2.087 -8.251,-3.167 -10.979,-3.321 -1.363,-0.043 -2.422,-0.023 -3.129,0.114 -0.327,0.048 -0.592,0.087 -0.806,0.118 -0.181,0.03 -0.271,0.049 -0.27,0.059 10e-4,0.009 0.096,0.008 0.279,-0.004 0.214,-0.017 0.48,-0.037 0.808,-0.062 0.706,-0.103 1.757,-0.087 3.101,-0.013 2.693,0.219 6.483,1.336 10.833,3.46 2.191,1.027 4.554,2.245 7.168,3.406 2.61,1.149 5.507,2.255 8.725,2.719 3.214,0.472 6.663,0.134 10.071,-0.654 3.427,-0.769 6.851,-1.957 10.391,-2.999 3.534,-1.05 7.054,-1.863 10.516,-1.988 3.462,-0.141 6.809,0.227 9.962,0.73 6.305,1.037 11.957,2.387 16.829,2.674 C -10.477,2.933 -6.509,2.373 -3.9,1.604 -1.288,0.811 0,0 0,0"
             style="fill:#1a2e35;fill-opacity:1;fill-rule:nonzero;stroke:none"
             id="path108" /></g><g
           id="g110"
           transform="translate(475.1744,186.9792)"><path
             d="m 0,0 c 0,-0.145 -101.469,-0.261 -226.608,-0.261 -125.183,0 -226.629,0.116 -226.629,0.261 0,0.144 101.446,0.26 226.629,0.26 C -101.469,0.26 0,0.144 0,0"
             style="fill:#1a2e35;fill-opacity:1;fill-rule:nonzero;stroke:none"
             id="path112" /></g></g></g><g
       id="g114"
       transform="translate(235.4093,400.4616)"><path
         d="m 0,0 -209.375,-213.111 130.177,0.044 L 0,-26.67 Z"
         style="fill:#ff4f5b;fill-opacity:1;fill-rule:nonzero;stroke:none"
         id="path116" /></g><g
       id="g118"><g
         id="g120"
         clip-path="url(#clipPath124)"><g
           id="g126"><g
             id="g128" /><g
             id="g140"><g
               clip-path="url(#clipPath132)"
               opacity="0.899994"
               id="g138"><g
                 transform="translate(235.4093,400.4616)"
                 id="g136"><path
                   d="m 0,0 -209.375,-213.111 130.177,0.044 L 0,-26.67 Z"
                   style="fill:#ffffff;fill-opacity:1;fill-rule:nonzero;stroke:none"
                   id="path134" /></g></g></g></g><g
           id="g142"
           transform="translate(184.1271,150.3122)"><path
             d="m 0,0 c 19.523,-0.919 39.429,-1.9 57.601,-7.382 7.078,-2.135 14.15,-4.987 21.766,-4.797 11.428,0.285 21.275,7.384 32.706,7.137 10.135,-0.219 18.668,-6.169 28.725,-7.137 11.874,-1.141 22.828,4.779 34.625,6.309 16.647,2.159 34.472,-5.468 50.287,-0.601 6.306,1.94 -0.606,5.185 -6.249,5.325 0,0 -20.878,0.283 -26.52,4.374 -5.643,4.09 -10.042,4.571 -13.274,5.53 -3.23,0.959 -8.59,-1.157 -8.59,-1.157 L 106.045,6.754 57.237,10.647 13.67,8.165 Z"
             style="fill:#ececec;fill-opacity:1;fill-rule:nonzero;stroke:none"
             id="path144" /></g><g
           id="g146"
           transform="translate(228.3546,344.4113)"><path
             d="m 0,0 -5,-161.208 62.274,0.75 -5.455,160.457 z"
             style="fill:#ff4f5b;fill-opacity:1;fill-rule:nonzero;stroke:none"
             id="path148" /></g><path
           d="m 284.432,344.411 h -61.078 v 7.027 h 61.078 z"
           style="fill:#375a64;fill-opacity:1;fill-rule:nonzero;stroke:none"
           id="path150" /><g
           id="g152"
           transform="translate(235.4093,351.4382)"><path
             d="m 0,0 v 49.486 l 16.649,7.245 h 4.009 L 37.615,49.023 V 0 Z"
             style="fill:#ff4f5b;fill-opacity:1;fill-rule:nonzero;stroke:none"
             id="path154" /></g><path
           d="m 273.024,400.462 h -37.615 v -26.67 h 37.615 z"
           style="fill:#ececec;fill-opacity:1;fill-rule:nonzero;stroke:none"
           id="path156" /><g
           id="g158"
           transform="translate(252.0582,408.1696)"><path
             d="M 0,0 V 5.396 H 3.7 V 0 H 0.617"
             style="fill:#ff4f5b;fill-opacity:1;fill-rule:nonzero;stroke:none"
             id="path160" /></g><g
           id="g162"><g
             id="g164" /><g
             id="g176"><g
               clip-path="url(#clipPath168)"
               opacity="0.399994"
               id="g174"><g
                 transform="translate(281.5465,304.0187)"
                 id="g172"><path
                   d="m 0,0 h -54.451 l -1.143,-36.685 H 1.247 Z"
                   style="fill:#ffffff;fill-opacity:1;fill-rule:nonzero;stroke:none"
                   id="path170" /></g></g></g></g><g
           id="g178"
           transform="translate(277.7545,351.4382)"><path
             d="M 0,0 C -0.018,0 -0.035,0.203 -0.052,0.592 -0.064,1.037 -0.081,1.601 -0.101,2.298 -0.121,3.853 -0.149,5.996 -0.185,8.64 L 0,8.456 C -5.856,8.401 -14.368,8.367 -23.823,8.367 c -9.458,0 -17.97,0.034 -23.827,0.089 l 0.185,0.184 C -47.5,5.996 -47.528,3.853 -47.549,2.297 -47.569,1.601 -47.585,1.037 -47.598,0.592 -47.615,0.203 -47.632,0 -47.65,0 c -0.018,0 -0.036,0.203 -0.052,0.592 -0.013,0.445 -0.029,1.009 -0.049,1.705 -0.02,1.556 -0.049,3.699 -0.084,6.343 l -0.002,0.184 0.187,10e-4 c 5.857,0.055 14.369,0.089 23.827,0.089 9.455,0 17.967,-0.035 23.823,-0.089 L 0.187,8.824 0.186,8.64 C 0.15,5.996 0.122,3.853 0.102,2.298 0.081,1.601 0.065,1.037 0.053,0.592 0.035,0.203 0.019,0 0,0"
             style="fill:#1a2e35;fill-opacity:1;fill-rule:nonzero;stroke:none"
             id="path180" /></g><g
           id="g182"
           transform="translate(264.1813,351.4382)"><path
             d="m 0,0 c -0.151,0 -0.273,1.935 -0.273,4.32 0,2.387 0.122,4.321 0.273,4.321 0.15,0 0.273,-1.934 0.273,-4.321 C 0.273,1.935 0.15,0 0,0"
             style="fill:#1a2e35;fill-opacity:1;fill-rule:nonzero;stroke:none"
             id="path184" /></g><g
           id="g186"
           transform="translate(246.5841,351.4382)"><path
             d="m 0,0 c -0.151,0 -0.273,1.935 -0.273,4.32 0,2.387 0.122,4.321 0.273,4.321 0.151,0 0.273,-1.934 0.273,-4.321 C 0.273,1.935 0.151,0 0,0"
             style="fill:#1a2e35;fill-opacity:1;fill-rule:nonzero;stroke:none"
             id="path188" /></g><g
           id="g190"
           transform="translate(246.2526,373.7917)"><path
             d="m 0,0 c -0.151,0 -0.273,5.971 -0.273,13.334 0,7.367 0.122,13.336 0.273,13.336 0.151,0 0.273,-5.969 0.273,-13.336 C 0.273,5.971 0.151,0 0,0"
             style="fill:#1a2e35;fill-opacity:1;fill-rule:nonzero;stroke:none"
             id="path192" /></g><g
           id="g194"
           transform="translate(261.0328,373.7917)"><path
             d="m 0,0 c -0.151,0 -0.273,5.971 -0.273,13.334 0,7.367 0.122,13.336 0.273,13.336 0.15,0 0.273,-5.969 0.273,-13.336 C 0.273,5.971 0.15,0 0,0"
             style="fill:#1a2e35;fill-opacity:1;fill-rule:nonzero;stroke:none"
             id="path196" /></g><g
           id="g198"
           transform="translate(273.024,387.0622)"><path
             d="m 0,0 c 0.001,-0.038 -0.525,-0.078 -1.477,-0.119 -1.056,-0.031 -2.41,-0.071 -4.03,-0.12 -3.404,-0.075 -8.106,-0.139 -13.3,-0.162 -5.195,-0.023 -9.899,0.001 -13.304,0.07 -3.396,0.058 -5.527,0.21 -5.504,0.331 2.767,0.021 9.276,0.072 18.805,0.146 5.141,0 9.791,0.001 13.299,0.002 1.622,-0.022 2.976,-0.04 4.032,-0.054 C -0.526,0.069 0,0.038 0,0"
             style="fill:#1a2e35;fill-opacity:1;fill-rule:nonzero;stroke:none"
             id="path200" /></g><g
           id="g202"><g
             id="g204" /><g
             id="g216"><g
               clip-path="url(#clipPath208)"
               opacity="0.399994"
               id="g214"><g
                 transform="translate(224.756,228.9333)"
                 id="g212"><path
                   d="m 0,0 h 59.343 l 1.253,-36.855 -61.737,0.253 z"
                   style="fill:#ffffff;fill-opacity:1;fill-rule:nonzero;stroke:none"
                   id="path210" /></g></g></g></g><g
           id="g218"
           transform="translate(227.6564,317.4099)"><path
             d="M 0,0 C 0,0.067 1.233,0.129 3.278,0.177 5.323,0.225 8.18,0.258 11.425,0.269 L 11.156,0 c -0.002,0.74 -0.003,1.51 -0.004,2.297 0.001,0.786 0.002,1.557 0.004,2.298 L 11.425,4.326 C 8.179,4.336 5.323,4.37 3.278,4.418 1.233,4.465 0,4.527 0,4.595 0,4.663 1.233,4.725 3.278,4.772 5.323,4.82 8.179,4.854 11.425,4.864 l 0.269,0.001 V 4.595 C 11.696,3.854 11.697,3.083 11.698,2.297 11.697,1.51 11.696,0.74 11.694,0 V -0.271 L 11.425,-0.27 C 8.18,-0.259 5.323,-0.225 3.278,-0.177 1.233,-0.13 0,-0.068 0,0"
             style="fill:#1a2e35;fill-opacity:1;fill-rule:nonzero;stroke:none"
             id="path220" /></g><g
           id="g222"
           transform="translate(258.3375,367.0197)"><path
             d="M 0,0 C -0.026,-0.026 -0.053,0.385 -0.088,1.172 -0.122,1.958 -0.167,3.128 -0.191,4.595 L -0.194,4.783 0,4.787 c 2.896,0.05 6.946,0.082 11.424,0.082 -0.243,0.244 0.334,-0.333 0.274,-0.274 V 4.594 4.591 4.587 4.577 4.559 4.521 4.445 4.295 3.996 L 11.697,3.401 C 11.697,3.007 11.696,2.617 11.695,2.232 11.692,1.465 11.689,0.719 11.687,0 l -10e-4,-0.263 -0.261,0.001 C 8.057,-0.246 5.16,-0.189 3.14,-0.138 2.22,-0.11 1.441,-0.085 0.795,-0.065 0.257,-0.042 -0.021,-0.021 0,0 0.021,0.022 0.343,0.043 0.912,0.066 1.576,0.086 2.374,0.11 3.317,0.139 5.353,0.189 8.169,0.246 11.425,0.262 L 11.163,0 c -0.003,0.719 -0.006,1.465 -0.009,2.232 0,0.385 -10e-4,0.775 -0.002,1.169 v 0.595 l -10e-4,0.299 v 0.15 0.076 0.038 0.018 0.01 0.004 0.003 10e-4 C 11.093,4.655 11.669,4.078 11.424,4.322 6.946,4.322 2.896,4.354 0,4.404 L 0.191,4.595 C 0.167,3.216 0.122,2.088 0.088,1.288 0.053,0.489 0.026,0.026 0,0"
             style="fill:#1a2e35;fill-opacity:1;fill-rule:nonzero;stroke:none"
             id="path224" /></g><g
           id="g226"
           transform="translate(251.6334,362.3356)"><path
             d="M 0,0 C -0.025,-0.026 -0.052,0.385 -0.088,1.172 -0.122,1.958 -0.166,3.128 -0.191,4.595 L -0.194,4.783 0,4.786 C 2.897,4.837 6.946,4.868 11.425,4.868 11.181,5.112 11.758,4.536 11.699,4.595 V 4.593 4.591 4.586 4.577 4.558 4.521 4.445 L 11.698,4.295 V 3.995 3.4 C 11.697,3.006 11.696,2.617 11.695,2.232 11.692,1.465 11.69,0.718 11.687,0 v -0.263 l -0.261,0.001 C 8.058,-0.246 5.161,-0.189 3.14,-0.139 2.221,-0.11 1.442,-0.086 0.795,-0.066 0.258,-0.043 -0.021,-0.022 0,0 0.022,0.021 0.343,0.043 0.913,0.065 1.576,0.085 2.374,0.109 3.317,0.138 5.354,0.189 8.169,0.246 11.426,0.262 L 11.164,0 C 11.161,0.718 11.158,1.465 11.155,2.232 11.154,2.617 11.153,3.006 11.153,3.4 l -0.001,0.595 v 0.3 0.15 0.076 0.037 0.019 0.009 0.005 0.002 0.002 C 11.093,4.654 11.669,4.078 11.425,4.322 6.946,4.322 2.897,4.353 0,4.404 L 0.191,4.595 C 0.167,3.215 0.123,2.088 0.088,1.288 0.053,0.489 0.026,0.026 0,0"
             style="fill:#1a2e35;fill-opacity:1;fill-rule:nonzero;stroke:none"
             id="path228" /></g><g
           id="g230"
           transform="translate(225.0031,239.322)"><path
             d="M 0,0 C 0,0.067 1.233,0.129 3.278,0.177 5.323,0.225 8.18,0.258 11.425,0.27 L 11.155,0 c -10e-4,0.74 -0.002,1.511 -0.004,2.297 0.002,0.787 0.003,1.557 0.004,2.298 l 0.27,-0.27 C 8.179,4.337 5.323,4.37 3.278,4.418 1.233,4.466 0,4.527 0,4.595 0,4.663 1.233,4.725 3.278,4.772 5.323,4.82 8.179,4.854 11.425,4.864 l 0.269,0.001 V 4.595 C 11.695,3.854 11.697,3.084 11.698,2.297 11.697,1.511 11.695,0.74 11.694,0 V -0.271 L 11.425,-0.27 C 8.18,-0.259 5.323,-0.226 3.278,-0.178 1.233,-0.13 0,-0.067 0,0"
             style="fill:#1a2e35;fill-opacity:1;fill-rule:nonzero;stroke:none"
             id="path232" /></g><g
           id="g234"
           transform="translate(246.5841,312.3679)"><path
             d="M 0,0 C -0.025,0.025 -0.05,0.523 -0.084,1.396 -0.118,2.271 -0.161,3.511 -0.185,5.042 L 0,4.857 C -3.418,4.803 -8.387,4.769 -13.905,4.769 c -0.245,-0.245 0.331,0.333 0.272,0.273 V 5.04 5.038 5.032 5.022 5.001 4.96 4.878 4.714 4.386 3.735 C -13.634,3.304 -13.635,2.877 -13.635,2.456 -13.638,1.613 -13.641,0.792 -13.643,0 l -0.263,0.264 C -9.945,0.249 -6.51,0.192 -4.03,0.141 -2.859,0.111 -1.883,0.086 -1.103,0.067 -0.411,0.044 -0.022,0.022 0,0 0.022,-0.022 -0.324,-0.043 -0.983,-0.067 -1.748,-0.086 -2.703,-0.111 -3.85,-0.14 -6.315,-0.192 -9.833,-0.248 -13.906,-0.263 l -0.263,-0.001 V 0 c -0.003,0.792 -0.005,1.613 -0.008,2.456 -0.001,0.421 -0.001,0.848 -0.002,1.279 V 4.386 4.714 4.878 4.96 5.001 5.022 5.032 5.038 5.04 5.042 c -0.06,-0.06 0.518,0.517 0.274,0.273 C -8.387,5.315 -3.418,5.281 0,5.227 L 0.187,5.224 0.185,5.042 C 0.16,3.426 0.117,2.145 0.084,1.285 0.05,0.424 0.025,-0.025 0,0"
             style="fill:#1a2e35;fill-opacity:1;fill-rule:nonzero;stroke:none"
             id="path236" /></g><g
           id="g238"
           transform="translate(260.861,253.6906)"><path
             d="M 0,0 C -0.025,0.025 -0.05,0.523 -0.084,1.396 -0.117,2.27 -0.161,3.51 -0.186,5.042 L 0,4.856 C -3.419,4.802 -8.387,4.768 -13.905,4.768 c -0.245,-0.244 0.331,0.333 0.272,0.273 V 5.04 5.037 5.032 5.022 5.001 4.96 4.878 4.713 4.386 3.735 C -13.634,3.304 -13.635,2.877 -13.635,2.455 -13.638,1.613 -13.641,0.792 -13.643,0 l -0.263,0.263 C -9.945,0.248 -6.51,0.192 -4.03,0.14 -2.858,0.111 -1.884,0.086 -1.103,0.066 -0.411,0.043 -0.022,0.022 0,0 0.022,-0.022 -0.323,-0.044 -0.983,-0.067 -1.747,-0.086 -2.703,-0.111 -3.851,-0.141 -6.315,-0.192 -9.833,-0.249 -13.906,-0.264 L -14.168,-0.265 -14.169,0 c -0.003,0.792 -0.005,1.613 -0.008,2.455 0,0.422 -0.001,0.849 -0.002,1.28 V 4.386 4.713 4.878 4.96 5.001 5.022 5.032 5.037 5.04 5.041 c -0.06,-0.059 0.518,0.518 0.274,0.273 C -8.387,5.314 -3.419,5.281 0,5.227 L 0.187,5.224 0.185,5.042 C 0.16,3.425 0.117,2.145 0.084,1.285 0.05,0.424 0.024,-0.025 0,0"
             style="fill:#1a2e35;fill-opacity:1;fill-rule:nonzero;stroke:none"
             id="path240" /></g><g
           id="g242"
           transform="translate(242.734,234.28)"><path
             d="M 0,0 C -0.025,0.025 -0.05,0.523 -0.084,1.396 -0.118,2.271 -0.161,3.511 -0.185,5.042 L 0,4.856 C -3.419,4.803 -8.387,4.769 -13.905,4.769 c -0.245,-0.245 0.331,0.333 0.272,0.272 V 5.04 5.037 5.032 5.022 5.001 4.96 4.878 4.714 4.386 3.735 C -13.634,3.304 -13.635,2.877 -13.635,2.455 -13.638,1.613 -13.641,0.792 -13.643,0 l -0.263,0.264 C -9.945,0.248 -6.51,0.192 -4.03,0.141 -2.859,0.111 -1.883,0.087 -1.103,0.066 -0.411,0.044 -0.022,0.022 0,0 0.022,-0.022 -0.324,-0.044 -0.983,-0.066 -1.748,-0.086 -2.703,-0.11 -3.85,-0.141 -6.315,-0.191 -9.833,-0.248 -13.906,-0.264 L -14.168,-0.265 -14.169,0 c -0.003,0.792 -0.005,1.613 -0.008,2.455 -0.001,0.422 -0.001,0.849 -0.002,1.28 V 4.386 4.714 4.878 4.96 5.001 5.022 5.032 5.037 5.04 5.041 c -0.06,-0.059 0.518,0.519 0.274,0.274 C -8.387,5.315 -3.419,5.281 0,5.227 L 0.187,5.224 0.185,5.042 C 0.16,3.426 0.117,2.145 0.084,1.285 0.05,0.424 0.025,-0.024 0,0"
             style="fill:#1a2e35;fill-opacity:1;fill-rule:nonzero;stroke:none"
             id="path244" /></g><g
           id="g246"
           transform="translate(276.2877,208.2302)"><path
             d="M 0,0 C -0.025,0.024 -0.051,0.523 -0.085,1.396 -0.118,2.271 -0.161,3.51 -0.186,5.041 L -0.001,4.856 C -3.419,4.802 -8.387,4.768 -13.905,4.768 c -0.245,-0.245 0.331,0.333 0.272,0.273 V 5.04 5.037 5.032 5.021 5.001 4.96 4.878 4.713 4.386 L -13.634,3.735 C -13.635,3.304 -13.635,2.877 -13.636,2.455 -13.638,1.612 -13.641,0.792 -13.643,0 l -0.263,0.263 C -9.945,0.248 -6.51,0.191 -4.03,0.14 -2.859,0.11 -1.884,0.086 -1.104,0.066 -0.411,0.043 -0.022,0.021 0,0 0.021,-0.022 -0.324,-0.044 -0.983,-0.067 -1.748,-0.087 -2.703,-0.111 -3.851,-0.141 -6.315,-0.192 -9.833,-0.249 -13.906,-0.264 L -14.169,-0.265 -14.17,0 c -0.002,0.792 -0.005,1.612 -0.007,2.455 -0.001,0.422 -0.002,0.849 -0.002,1.28 L -14.18,4.386 V 4.713 4.878 4.96 5.001 5.021 5.032 5.037 5.04 5.041 c -0.059,-0.059 0.519,0.518 0.275,0.273 5.518,0 10.486,-0.034 13.904,-0.087 L 0.187,5.224 0.185,5.041 C 0.16,3.425 0.117,2.145 0.084,1.284 0.05,0.424 0.024,-0.025 0,0"
             style="fill:#1a2e35;fill-opacity:1;fill-rule:nonzero;stroke:none"
             id="path248" /></g><g
           id="g250"
           transform="translate(285.0514,202.9557)"><path
             d="M 0,0 C -0.025,0.024 -0.05,0.523 -0.084,1.396 -0.117,2.27 -0.161,3.51 -0.185,5.041 L 0,4.856 C -3.419,4.802 -8.387,4.768 -13.905,4.768 c -0.244,-0.245 0.332,0.333 0.272,0.273 V 5.04 5.037 5.032 5.021 5.001 4.96 4.878 4.713 4.386 l -0.001,-0.651 c 0,-0.431 -10e-4,-0.858 -0.002,-1.28 C -13.638,1.612 -13.641,0.792 -13.643,0 l -0.263,0.263 C -9.944,0.248 -6.51,0.191 -4.03,0.14 -2.858,0.11 -1.884,0.086 -1.103,0.066 -0.41,0.043 -0.022,0.021 0,0 0.022,-0.022 -0.323,-0.044 -0.983,-0.067 -1.747,-0.087 -2.702,-0.111 -3.851,-0.141 -6.314,-0.192 -9.833,-0.249 -13.906,-0.264 l -0.263,-0.001 V 0 c -0.003,0.792 -0.005,1.612 -0.008,2.455 -0.001,0.422 -0.001,0.849 -0.002,1.28 V 4.386 L -14.18,4.713 V 4.878 4.96 5.001 5.021 5.032 5.037 5.04 5.041 c -0.059,-0.059 0.519,0.518 0.275,0.273 C -8.387,5.314 -3.419,5.28 0,5.226 L 0.187,5.224 0.185,5.041 C 0.16,3.425 0.117,2.145 0.084,1.284 0.05,0.424 0.024,-0.025 0,0"
             style="fill:#1a2e35;fill-opacity:1;fill-rule:nonzero;stroke:none"
             id="path252" /></g><g
           id="g254"
           transform="translate(274.5651,288.3063)"><path
             d="M 0,0 C -0.025,0.025 -0.05,0.523 -0.084,1.396 -0.117,2.271 -0.161,3.51 -0.185,5.042 L 0,4.857 C -3.418,4.802 -8.387,4.769 -13.905,4.769 c -0.244,-0.245 0.332,0.333 0.272,0.273 V 5.04 5.038 5.032 5.022 5.001 4.96 4.878 4.713 4.386 3.735 C -13.634,3.304 -13.635,2.877 -13.635,2.455 -13.638,1.613 -13.64,0.792 -13.643,0 l -0.263,0.263 C -9.944,0.249 -6.51,0.192 -4.03,0.141 -2.858,0.111 -1.883,0.086 -1.103,0.067 -0.41,0.043 -0.022,0.022 0,0 0.022,-0.022 -0.323,-0.043 -0.983,-0.067 -1.747,-0.086 -2.702,-0.111 -3.85,-0.14 -6.314,-0.192 -9.833,-0.248 -13.906,-0.263 L -14.168,-0.264 -14.169,0 c -0.003,0.792 -0.005,1.613 -0.008,2.455 -0.001,0.422 -0.001,0.849 -0.002,1.28 V 4.386 4.713 4.878 4.96 5.001 5.022 5.032 5.038 5.04 5.042 c -0.059,-0.06 0.518,0.517 0.274,0.273 C -8.387,5.315 -3.418,5.281 0,5.227 L 0.187,5.224 0.185,5.042 C 0.161,3.425 0.117,2.145 0.084,1.285 0.05,0.424 0.025,-0.025 0,0"
             style="fill:#1a2e35;fill-opacity:1;fill-rule:nonzero;stroke:none"
             id="path256" /></g><g
           id="g258"><g
             id="g260" /><g
             id="g272"><g
               clip-path="url(#clipPath264)"
               opacity="0.399994"
               id="g270"><g
                 transform="translate(228.3546,344.4113)"
                 id="g268"><path
                   d="m 0,0 35.827,-8.085 2.666,-152.373 H 57.274 L 51.819,0 Z"
                   style="fill:#000000;fill-opacity:1;fill-rule:nonzero;stroke:none"
                   id="path266" /></g></g></g></g><g
           id="g274"
           transform="translate(202.9655,162.7155)"><path
             d="m 0,0 c 0,-0.151 -11.978,-0.273 -26.75,-0.273 -14.778,0 -26.753,0.122 -26.753,0.273 0,0.15 11.975,0.272 26.753,0.272 C -11.978,0.272 0,0.15 0,0"
             style="fill:#1a2e35;fill-opacity:1;fill-rule:nonzero;stroke:none"
             id="path276" /></g><g
           id="g278"
           transform="translate(313.6715,184.0661)"><path
             d="m 0,0 c 0.006,-0.037 -0.604,-0.165 -1.71,-0.365 -1.2,-0.204 -2.781,-0.473 -4.691,-0.797 -3.966,-0.649 -9.45,-1.508 -15.511,-2.423 -0.8,-0.12 -1.59,-0.238 -2.363,-0.354 l 0.159,0.083 c -2.338,-2.498 -4.514,-4.825 -6.41,-6.854 l -0.057,-0.06 -0.078,-0.011 c -3.039,-0.431 -5.595,-0.793 -7.496,-1.063 -0.842,-0.104 -1.537,-0.191 -2.099,-0.26 -0.485,-0.053 -0.745,-0.07 -0.749,-0.045 -0.004,0.024 0.249,0.086 0.728,0.183 0.556,0.104 1.245,0.233 2.079,0.387 1.893,0.318 4.439,0.747 7.466,1.256 l -0.134,-0.072 c 1.88,2.045 4.035,4.389 6.351,6.909 l 0.064,0.069 0.096,0.015 c 0.772,0.117 1.561,0.236 2.361,0.358 6.061,0.915 11.555,1.713 15.535,2.265 1.921,0.254 3.511,0.464 4.718,0.624 C -0.625,-0.02 -0.006,0.037 0,0"
             style="fill:#1a2e35;fill-opacity:1;fill-rule:nonzero;stroke:none"
             id="path280" /></g><g
           id="g282"
           transform="translate(170.6974,175.1823)"><path
             d="M 0,0 C 1.412,0.729 3.074,0.823 4.641,0.564 5.483,0.425 6.361,0.173 6.934,-0.46 7.507,-1.092 7.615,-2.205 6.958,-2.748 6.566,-3.072 6.02,-3.121 5.512,-3.115 4.285,-3.101 2.924,-2.885 1.943,-3.623 1.384,-4.044 1.012,-4.744 0.343,-4.951 c -0.654,-0.203 -1.392,0.182 -1.739,0.773 -0.347,0.59 -0.358,1.328 -0.196,1.993 0,0 0.17,1.452 1.592,2.185"
             style="fill:#ff4f5b;fill-opacity:1;fill-rule:nonzero;stroke:none"
             id="path284" /></g><g
           id="g286"
           transform="translate(167.463,181.4255)"><path
             d="M 0,0 C 0.863,-1.232 2.541,-0.824 3.319,-0.071 4.097,0.681 4.425,1.771 4.725,2.812 5.409,5.188 6.098,7.681 5.59,10.102 5.437,10.825 5.167,11.546 4.659,12.083 4.15,12.62 3.369,12.939 2.654,12.75 1.808,12.526 1.282,11.698 0.902,10.91 -0.215,8.594 -0.807,6.025 -0.815,3.453 -0.819,2.252 -0.678,0.992 0,0"
             style="fill:#ff4f5b;fill-opacity:1;fill-rule:nonzero;stroke:none"
             id="path288" /></g><g
           id="g290"
           transform="translate(165.0924,179.6569)"><path
             d="m 0,0 c 0.937,1.112 1.115,2.734 0.698,4.128 -0.417,1.393 -1.359,2.579 -2.445,3.547 -1.273,1.135 -2.77,2.018 -4.378,2.584 -0.634,0.222 -1.302,0.398 -1.97,0.334 -0.668,-0.064 -1.341,-0.405 -1.653,-0.999 -0.46,-0.879 -0.019,-1.946 0.459,-2.815 0.842,-1.532 1.805,-2.998 2.876,-4.38 0.862,-1.111 1.85,-2.207 3.163,-2.71 1.314,-0.501 2.679,-0.442 3.375,0.468"
             style="fill:#ff4f5b;fill-opacity:1;fill-rule:nonzero;stroke:none"
             id="path292" /></g><g
           id="g294"
           transform="translate(167.4044,162.8278)"><path
             d="m 0,0 c 0.016,-0.001 0.042,0.199 0.078,0.561 0.04,0.407 0.089,0.919 0.149,1.528 0.071,0.643 0.165,1.409 0.344,2.243 0.178,0.831 0.457,1.732 0.815,2.647 0.371,0.908 0.823,1.734 1.352,2.394 0.524,0.664 1.135,1.144 1.708,1.421 0.572,0.282 1.085,0.397 1.439,0.448 0.358,0.036 0.558,0.065 0.558,0.081 0,0.016 -0.2,0.019 -0.568,0.009 C 5.512,11.308 4.978,11.215 4.375,10.941 3.771,10.673 3.123,10.186 2.572,9.508 2.018,8.834 1.549,7.99 1.171,7.065 0.807,6.135 0.532,5.225 0.362,4.375 0.192,3.526 0.115,2.753 0.064,2.104 0.016,1.455 -0.003,0.929 -0.012,0.565 -0.02,0.202 -0.016,0.001 0,0"
             style="fill:#1a2e35;fill-opacity:1;fill-rule:nonzero;stroke:none"
             id="path296" /></g><g
           id="g298"
           transform="translate(167.5099,164.0046)"><path
             d="M 0,0 C 0.008,0 0.013,0.09 0.015,0.26 0.014,0.455 0.014,0.701 0.013,1.003 0.011,1.648 0.012,2.582 0.046,3.734 c 0.057,2.306 0.256,4.787 0.639,8.287 0.363,3.289 0.851,7.117 1.365,9.606 0.11,0.566 0.221,1.075 0.326,1.521 0.1,0.448 0.185,0.833 0.267,1.145 0.07,0.294 0.128,0.532 0.173,0.723 0.038,0.166 0.054,0.254 0.046,0.255 C 2.854,25.274 2.823,25.19 2.771,25.028 2.715,24.841 2.644,24.605 2.556,24.316 2.46,24.007 2.362,23.624 2.25,23.179 2.133,22.734 2.011,22.227 1.89,21.661 1.381,19.405 0.842,16.254 0.455,12.747 0.071,9.241 -0.102,6.049 -0.117,3.737 -0.131,2.582 -0.106,1.646 -0.077,1.001 -0.059,0.699 -0.043,0.453 -0.032,0.258 -0.019,0.088 -0.008,-0.001 0,0"
             style="fill:#1a2e35;fill-opacity:1;fill-rule:nonzero;stroke:none"
             id="path300" /></g><g
           id="g302"
           transform="translate(167.525,170.1608)"><path
             d="M 0,0 C 0.016,0 0.014,0.276 -0.005,0.776 -0.034,1.275 -0.103,1.997 -0.243,2.88 -0.392,3.762 -0.6,4.809 -0.927,5.945 c -0.142,0.521 -0.475,1.766 -1.282,3.627 -1.063,2.523 -2.508,4.584 -3.764,5.862 -0.295,0.338 -0.623,0.584 -0.886,0.823 -0.136,0.115 -0.256,0.229 -0.378,0.32 -0.123,0.085 -0.238,0.164 -0.344,0.237 -0.413,0.283 -0.645,0.432 -0.653,0.418 -0.037,-0.05 0.926,-0.617 2.143,-1.911 1.211,-1.292 2.615,-3.34 3.67,-5.841 C -1.833,8.124 -1.423,6.914 -1.132,5.887 -0.796,4.761 -0.573,3.725 -0.404,2.853 -0.244,1.978 -0.151,1.264 -0.095,0.77 -0.049,0.273 -0.016,-0.001 0,0"
             style="fill:#1a2e35;fill-opacity:1;fill-rule:nonzero;stroke:none"
             id="path304" /></g><path
           d="m 234.138,288.306 h -4.033 v 6.233 h 4.033 z"
           style="fill:#1a2e35;fill-opacity:1;fill-rule:nonzero;stroke:none"
           id="path306" /><path
           d="m 234.138,280.362 h -4.033 v 6.233 h 4.033 z"
           style="fill:#1a2e35;fill-opacity:1;fill-rule:nonzero;stroke:none"
           id="path308" /><g
           id="g310"
           transform="translate(303.149,196.3005)"><path
             d="m 0,0 c 0.05,1.58 1.444,2.775 2.836,3.526 1.392,0.751 2.962,1.33 3.935,2.577 1.578,2.018 1.217,5.334 3.327,6.787 1.242,0.854 2.991,0.751 4.151,1.713 0.609,0.503 0.972,1.236 1.355,1.926 1.956,3.528 4.876,6.512 8.361,8.542 C 23.169,21.655 21.433,18.462 18.997,15.938 18.019,14.923 16.904,13.979 16.306,12.703 15.334,10.63 15.893,8.039 14.737,6.062 13.415,3.802 10.199,2.969 9.337,0.495 8.607,-1.595 9.914,-3.998 9.157,-6.078 8.835,-6.965 8.172,-7.681 7.479,-8.32 5.041,-10.569 2.082,-11.745 -1.554,-10.618 l -4.522,1.149 z"
             style="fill:#ff4f5b;fill-opacity:1;fill-rule:nonzero;stroke:none"
             id="path312" /></g><g
           id="g314"><g
             id="g316" /><g
             id="g328"><g
               clip-path="url(#clipPath320)"
               opacity="0.300003"
               id="g326"><g
                 transform="translate(303.149,196.3005)"
                 id="g324"><path
                   d="m 0,0 c 0.05,1.58 1.444,2.775 2.836,3.526 1.392,0.751 2.962,1.33 3.935,2.577 1.578,2.018 1.217,5.334 3.327,6.787 1.242,0.854 2.991,0.751 4.151,1.713 0.609,0.503 0.972,1.236 1.355,1.926 1.956,3.528 4.876,6.512 8.361,8.542 C 23.169,21.655 21.433,18.462 18.997,15.938 18.019,14.923 16.904,13.979 16.306,12.703 15.334,10.63 15.893,8.039 14.737,6.062 13.415,3.802 10.199,2.969 9.337,0.495 8.607,-1.595 9.914,-3.998 9.157,-6.078 8.835,-6.965 8.172,-7.681 7.479,-8.32 5.041,-10.569 2.082,-11.745 -1.554,-10.618 l -4.522,1.149 z"
                   style="fill:#000000;fill-opacity:1;fill-rule:nonzero;stroke:none"
                   id="path322" /></g></g></g></g><g
           id="g330"
           transform="translate(296.1324,186.9792)"><path
             d="m 0,0 c 0,0 -0.46,0.009 -1.235,0.363 -0.755,0.357 -1.913,0.964 -2.886,2.295 -0.222,0.343 -0.427,0.747 -0.465,1.223 -0.036,0.472 0.068,0.937 0.175,1.416 0.244,0.947 0.515,1.965 0.182,3.047 -0.256,1.069 -0.886,2.208 -0.805,3.576 0.054,1.35 0.669,2.636 1.265,3.921 0.598,1.284 1.214,2.672 1.107,4.193 -0.071,1.521 -0.688,3.069 -0.722,4.816 -0.025,1.765 0.707,3.423 1.091,5.129 0.198,0.858 0.278,1.735 0.138,2.616 -0.13,0.886 -0.415,1.779 -0.567,2.739 -0.307,1.945 0.114,3.91 0.441,5.844 0.169,0.974 0.339,1.959 0.511,2.953 0.176,1.004 0.369,1.976 0.335,2.987 -0.002,1.009 -0.136,2.028 -0.262,3.069 -0.059,0.523 -0.129,1.049 -0.099,1.622 0.069,0.577 0.187,1.065 0.308,1.601 0.463,2.118 1.507,4.077 2.349,6.052 0.025,0.059 0.049,0.117 0.073,0.172 l 0.15,0.36 0.286,-0.262 C 3.08,58.17 3.736,55.874 3.91,53.755 4.098,51.596 3.776,49.493 3.592,47.466 3.397,45.438 3.332,43.422 3.845,41.558 4.338,39.72 5.401,37.906 5.142,35.866 4.836,33.841 3.306,32.487 3.048,30.793 2.731,29.097 3.424,27.432 3.917,25.848 4.455,24.272 4.806,22.546 4.407,20.977 4.07,19.422 3.437,18.055 3.152,16.684 2.849,15.318 2.961,13.965 3.176,12.714 3.392,11.459 3.7,10.287 3.92,9.171 4.152,8.066 4.292,6.979 4.153,5.996 4.025,5.02 3.754,4.155 3.427,3.42 2.774,1.938 1.869,1.001 1.166,0.534 0.455,0.064 0,0 0,0 -0.016,0.036 0.43,0.137 1.103,0.624 1.769,1.108 2.624,2.044 3.232,3.504 3.537,4.229 3.786,5.077 3.896,6.026 4.013,6.979 3.867,8.005 3.621,9.109 3.39,10.212 3.067,11.38 2.834,12.654 c -0.231,1.267 -0.365,2.675 -0.06,4.109 0.286,1.427 0.912,2.806 1.221,4.299 0.363,1.496 0.033,3.071 -0.508,4.645 -0.26,0.793 -0.551,1.601 -0.759,2.461 -0.209,0.854 -0.328,1.783 -0.153,2.711 0.32,1.893 1.841,3.27 2.068,5.055 0.24,1.805 -0.762,3.563 -1.301,5.486 -0.545,1.964 -0.474,4.052 -0.283,6.095 0.184,2.05 0.494,4.115 0.309,6.194 -0.169,2.052 -0.805,4.196 -2.366,5.62 l 0.437,0.099 C 1.416,59.372 1.392,59.313 1.366,59.252 0.498,57.223 -0.509,55.339 -0.96,53.282 c -0.115,-0.499 -0.239,-1.045 -0.295,-1.513 -0.027,-0.483 0.036,-1.004 0.094,-1.519 0.124,-1.033 0.261,-2.079 0.262,-3.129 0.032,-1.055 -0.174,-2.096 -0.349,-3.077 -0.175,-0.995 -0.348,-1.981 -0.52,-2.955 -0.336,-1.946 -0.741,-3.855 -0.456,-5.678 0.138,-0.909 0.42,-1.807 0.556,-2.745 0.148,-0.942 0.054,-1.91 -0.156,-2.792 -0.413,-1.77 -1.126,-3.383 -1.107,-5.02 0.015,-1.632 0.618,-3.19 0.69,-4.798 C -2.14,18.416 -2.813,16.95 -3.418,15.677 -4.031,14.393 -4.627,13.155 -4.687,11.903 -4.782,10.652 -4.194,9.54 -3.933,8.418 -3.791,7.858 -3.739,7.274 -3.817,6.734 -3.891,6.194 -4.041,5.703 -4.157,5.235 -4.271,4.771 -4.376,4.312 -4.35,3.896 -4.325,3.482 -4.146,3.103 -3.943,2.774 -3.043,1.484 -1.914,0.841 -1.188,0.463 -0.44,0.081 0.008,0.03 0,0"
             style="fill:#1a2e35;fill-opacity:1;fill-rule:nonzero;stroke:none"
             id="path332" /></g><g
           id="g334"
           transform="translate(297.3756,243.8347)"><path
             d="m 0,0 c 0.056,-0.001 -0.028,-0.806 -0.028,-2.236 0.024,-0.357 0.029,-0.747 0.07,-1.181 0.057,-0.437 0.125,-0.911 0.169,-1.424 0.1,-1.023 0.162,-2.196 0.155,-3.491 -0.001,-1.296 -0.08,-2.713 -0.174,-4.225 -0.083,-1.516 -0.196,-3.112 0.167,-4.761 0.157,-0.831 0.357,-1.69 0.453,-2.6 0.103,-0.915 0.027,-1.862 -0.103,-2.785 -0.068,-0.459 -0.137,-0.922 -0.206,-1.39 -0.043,-0.467 -0.086,-0.938 -0.13,-1.413 -0.087,-0.949 -0.176,-1.913 -0.267,-2.888 -0.393,-7.85 -0.653,-14.973 -0.873,-20.127 -0.121,-2.517 -0.22,-4.583 -0.294,-6.1 -0.043,-0.67 -0.079,-1.218 -0.107,-1.658 -0.031,-0.379 -0.057,-0.577 -0.075,-0.576 -0.019,0 -0.03,0.2 -0.035,0.58 0.001,0.441 0.003,0.99 0.005,1.661 0.03,1.519 0.071,3.587 0.121,6.107 0.12,5.155 0.318,12.278 0.714,20.151 0.091,0.983 0.182,1.956 0.271,2.915 0.046,0.478 0.091,0.954 0.136,1.425 0.07,0.466 0.14,0.929 0.21,1.387 0.132,0.911 0.206,1.795 0.113,2.659 -0.085,0.866 -0.275,1.715 -0.428,2.561 -0.36,1.702 -0.227,3.383 -0.124,4.882 0.114,1.513 0.214,2.916 0.24,4.2 0.031,1.283 -0.003,2.444 -0.074,3.462 -0.029,0.509 -0.082,0.98 -0.123,1.416 -0.026,0.44 -0.016,0.853 -0.024,1.218 -0.006,0.73 0.111,1.278 0.141,1.658 C -0.053,-0.196 -0.019,0.001 0,0"
             style="fill:#1a2e35;fill-opacity:1;fill-rule:nonzero;stroke:none"
             id="path336" /></g><g
           id="g338"
           transform="translate(295.3385,187.196)"><path
             d="m 0,0 c -2.416,2.59 -1.717,8.109 0.43,10.929 2.145,2.819 5.127,5.096 6.443,8.385 1.013,2.529 0.939,5.449 2.287,7.815 1.819,3.193 5.946,4.874 6.938,8.414 0.555,1.985 -0.028,4.177 0.639,6.129 0.818,2.393 3.242,3.774 5.019,5.575 2.719,2.756 3.964,6.589 5.637,10.08 1.673,3.491 4.217,7.011 7.994,7.865 -0.429,-3.253 -0.232,-5.625 -1.72,-9.768 C 33.133,53.937 30.526,51.55 29.318,48.3 28.597,46.357 27.918,44.398 27.217,42.448 26.535,40.55 25.836,38.619 24.615,37.014 23.681,35.783 22.461,34.773 21.649,33.458 20.122,30.983 20.246,27.784 18.852,25.232 17.671,23.071 15.492,21.55 14.482,19.303 13.063,16.146 14.195,12.105 12.189,9.284 11.193,7.885 9.548,7.008 8.715,5.506 8.068,4.34 7.99,2.93 7.369,1.75 6.368,-0.149 2.059,-0.594 0.038,0.131"
             style="fill:#ff4f5b;fill-opacity:1;fill-rule:nonzero;stroke:none"
             id="path340" /></g><g
           id="g342"
           transform="translate(329.0172,249.5329)"><path
             d="m 0,0 c 0.018,-0.008 -0.071,-0.24 -0.257,-0.675 -0.191,-0.435 -0.45,-1.073 -0.847,-1.89 -0.412,-0.822 -1.131,-1.664 -1.817,-2.727 -0.706,-1.056 -1.461,-2.288 -2.221,-3.694 -0.765,-1.403 -1.523,-2.981 -2.334,-4.685 -0.814,-1.684 -1.701,-3.573 -3.135,-5.184 -0.684,-0.819 -1.413,-1.62 -2.043,-2.507 -0.635,-0.881 -1.104,-1.89 -1.522,-2.956 -0.208,-0.538 -0.417,-1.08 -0.628,-1.627 -0.241,-0.537 -0.485,-1.078 -0.731,-1.623 -0.492,-1.09 -0.992,-2.196 -1.498,-3.315 -2.207,-4.374 -4.36,-8.513 -6.32,-12.275 -1.984,-3.731 -3.775,-7.099 -5.291,-9.947 -1.5,-2.781 -2.725,-5.049 -3.608,-6.685 -0.415,-0.744 -0.749,-1.343 -1.006,-1.804 -0.235,-0.41 -0.366,-0.621 -0.384,-0.612 -0.016,0.009 0.083,0.237 0.287,0.663 0.234,0.474 0.538,1.088 0.915,1.853 0.845,1.654 2.018,3.951 3.455,6.764 1.485,2.864 3.241,6.25 5.186,10.002 1.932,3.78 4.049,7.925 6.274,12.279 0.503,1.11 1,2.207 1.49,3.288 0.244,0.541 0.487,1.077 0.728,1.609 0.213,0.547 0.424,1.09 0.633,1.628 0.426,1.076 0.924,2.14 1.595,3.059 0.659,0.921 1.403,1.726 2.083,2.53 1.41,1.564 2.272,3.369 3.113,5.058 0.827,1.693 1.611,3.273 2.403,4.674 0.787,1.403 1.572,2.633 2.306,3.679 0.721,1.06 1.461,1.881 1.883,2.656 0.386,0.757 0.696,1.366 0.935,1.836 C -0.139,-0.208 -0.017,0.008 0,0"
             style="fill:#1a2e35;fill-opacity:1;fill-rule:nonzero;stroke:none"
             id="path344" /></g><g
           id="g346"
           transform="translate(310.4918,148.7663)"><path
             d="m 0,0 c 7.327,-2.087 15.132,-1.408 22.134,1.593 1.673,0.718 3.374,1.331 5.134,1.678 8.865,1.751 17.655,-3.457 26.691,-3.545 5.417,-0.055 10.656,1.73 16,2.656 -4.787,3.374 -10.693,7.484 -10.693,7.484 l -1.538,3.716 -13.29,4.054 -15.75,10.245 -9.894,1.373 -10.812,5.764 -32.845,5.661 h -63.514 l -17.787,-11.12 -38.358,-2.184 -16.425,-12.951 -24.141,-6.437 -10.65,-8.062 c 2.694,-0.229 5.39,-0.358 8.096,-0.253 13.714,0.528 26.913,6.653 40.622,6.02 14.784,-0.683 28.891,-9.195 43.555,-7.201 11.679,1.589 22.239,9.752 33.988,8.815 10.936,-0.872 20.285,-9.554 31.255,-9.573 6.466,-0.01 12.493,3.013 18.72,4.752 C -12.245,4.513 -7.416,2.113 0,0"
             style="fill:#375a64;fill-opacity:1;fill-rule:nonzero;stroke:none"
             id="path348" /></g></g></g><g
       id="g350"><g
         id="g352"
         clip-path="url(#clipPath356)"><g
           id="g358"
           transform="translate(425.4576,182.8298)"><path
             d="m 0,0 c 0,-0.122 -8.552,-0.221 -19.1,-0.221 -10.55,0 -19.1,0.099 -19.1,0.221 0,0.122 8.55,0.221 19.1,0.221 C -8.552,0.221 0,0.122 0,0"
             style="fill:#375a64;fill-opacity:1;fill-rule:nonzero;stroke:none"
             id="path360" /></g><g
           id="g362"
           transform="translate(419.5524,178.4753)"><path
             d="m 0,0 c 0,-0.122 -5.48,-0.221 -12.239,-0.221 -6.762,0 -12.24,0.099 -12.24,0.221 0,0.122 5.478,0.222 12.24,0.222 C -5.48,0.222 0,0.122 0,0"
             style="fill:#375a64;fill-opacity:1;fill-rule:nonzero;stroke:none"
             id="path364" /></g><g
           id="g366"
           transform="translate(409.5787,173.7917)"><path
             d="m 0,0 c 0,-0.122 -0.846,-0.222 -1.889,-0.222 -1.043,0 -1.888,0.1 -1.888,0.222 0,0.122 0.845,0.221 1.888,0.221 C -0.846,0.221 0,0.122 0,0"
             style="fill:#375a64;fill-opacity:1;fill-rule:nonzero;stroke:none"
             id="path368" /></g><g
           id="g370"
           transform="translate(399.3912,196.444)"><path
             d="m 0,0 -5.355,-0.027 c 0.039,1.069 0.063,2.497 0.063,4.071 0,2.28 -0.05,4.262 -0.124,5.273 H 0 Z m -10.023,9.317 h 4.382 C -5.715,8.306 -5.766,6.324 -5.766,4.044 c 0,-1.575 0.025,-3.004 0.064,-4.072 l -4.262,-0.023 c 0.04,1.072 0.065,2.51 0.065,4.095 0,2.28 -0.05,4.262 -0.124,5.273 m 27.019,-9.42 V 11.16 H 7.884 v 6.106 H 5.324 V 10.854 H 3.993 v 6.347 H 1.741 V 11.16 H -12.184 V 9.317 h 1.936 c -0.074,-1.011 -0.125,-2.993 -0.125,-5.273 0,-1.586 0.024,-3.024 0.064,-4.097 l -9.758,-0.05 8.6,-9.521 h 35.426 l 6.757,9.521 z"
             style="fill:#375a64;fill-opacity:1;fill-rule:nonzero;stroke:none"
             id="path372" /></g></g></g></g></svg>
